<?xml version="1.0" encoding="utf-8"?>
<!-- Generator: Adobe Illustrator 24.0.3, SVG Export Plug-In . SVG Version: 6.00 Build 0)  -->
<svg version="1.1" id="_x39_4c1f45f-2d92-458e-bbfe-f6c69da92e14"
	 xmlns="http://www.w3.org/2000/svg" xmlns:xlink="http://www.w3.org/1999/xlink" x="0px" y="0px" viewBox="0 0 1034.9 831.6"
	 style="enable-background:new 0 0 1034.9 831.6;" xml:space="preserve">
<style type="text/css">
	.st0{opacity:0.1;fill:#38A169;enable-background:new    ;}
	.st1{fill:none;stroke:#535461;stroke-width:2;stroke-miterlimit:10;}
	.st2{fill:#6415FF;}
	.st3{fill:#387948;enable-background:new    ;}
	.st4{fill:#38A169;}
	.st5{fill:url(#SVGID_1_);}
	.st6{fill:#65617D;}
	.st7{opacity:0.1;enable-background:new    ;}
	.st8{fill:#FBBEBE;}
	.st9{fill:#E7EFFD;}
	.st10{fill:#3F3D56;}
	.st11{fill:#5F5D7E;}
	.st12{fill:#7C5C5C;}
	.st13{opacity:0.1;}
	.st14{fill:#E6E8EC;}
	.st15{opacity:0.1;fill:#6415FF;enable-background:new    ;}
	.st16{fill:#DCDFED;}
	.st17{fill:#E3E5F1;}
</style>
<title>envelope</title>
<path class="st0" d="M599.8,96.9C533.5,95,470.3,77.1,410,57.6S289.8,16.5,225.1,6.2c-41.6-6.6-89.3-7.6-122.8,11
	C69.9,35.1,59.5,65.9,53.9,94.6c-4.2,21.6-6.7,44.3,4.9,64.4c8,14,22.3,25.8,32.2,39.2C125.2,245,101,302.6,63.8,348.2
	c-17.4,21.4-37.7,41.8-51.1,64.6S-7,461.6,4.7,484.8c11.7,23,39.5,40.3,69.6,52.5c61.2,24.7,133.3,31.8,203.6,35.8
	c155.6,8.9,312.1,5,468.2,1.2c57.8-1.4,115.8-2.9,172.6-10.3c31.5-4.1,64.1-10.7,87-26.5c29.1-20.1,36.3-54.1,16.8-79.3
	c-32.7-42.2-123-52.7-145.9-98.1c-12.6-25,0.3-52.8,18.6-75.9c39.2-49.6,104.9-93.2,108.4-149.9c2.4-39-29.2-78-78-96.4
	C874.4,18.5,803.4,21,765.6,53C726.8,85.9,658.4,98.6,599.8,96.9z"/>
<ellipse class="st0" cx="434" cy="804.1" rx="290.8" ry="29.3"/>
<path class="st1" d="M168,800.9c0,0-12.9-73.1-60.8-109.3c-20.1-15.2-34.8-35.9-41.2-59.4c-3-11.2-5-22.6-5.8-34.1"/>
<path class="st2" d="M30.2,575.1c4,7.8,30.7,23.7,30.7,23.7s3.4-29.6-0.7-37.5s-14-11.1-22.3-7.3S26.2,567.3,30.2,575.1z"/>
<path class="st2" d="M27.7,629.9c7.9,4.5,39.4,4.1,39.4,4.1S52.9,607.4,45,602.9s-18.2-2.1-22.9,5.3S19.8,625.4,27.7,629.9z"/>
<path class="st2" d="M66.9,703.6c9.2,0.1,36.2-15.2,36.2-15.2s-26.5-16.2-35.7-16.3s-16.8,6.8-17,15.5S57.6,703.5,66.9,703.6z"/>
<path class="st2" d="M109.8,753c9.1,1.6,38.4-9.2,38.4-9.2S125,723.6,116,722s-17.8,4-19.5,12.6S100.8,751.4,109.8,753z"/>
<path class="st2" d="M99.4,621.1c-3.1,8.2-28,26.5-28,26.5s-6.6-29.1-3.4-37.3s12.7-12.4,21.4-9.5S102.6,612.9,99.4,621.1z"/>
<path class="st2" d="M148.9,679.5c-5.6,6.9-35.1,17.4-35.1,17.4s3-29.7,8.6-36.6c5.8-7,16-8.3,23.4-3c6.9,4.8,8.7,14.2,3.9,21.1
	C149.4,678.8,149.2,679.2,148.9,679.5z"/>
<path class="st2" d="M188.7,742.5c-4.3,7.7-31.5,22.8-31.5,22.8s-2.4-29.7,1.9-37.4s14.4-10.7,22.5-6.7S193,734.8,188.7,742.5z"/>
<path class="st3" d="M30.2,575.1c4,7.8,30.7,23.7,30.7,23.7s3.4-29.6-0.7-37.5s-14-11.1-22.3-7.3S26.2,567.3,30.2,575.1z"/>
<path class="st3" d="M27.7,629.9c7.9,4.5,39.4,4.1,39.4,4.1S52.9,607.4,45,602.9s-18.2-2.1-22.9,5.3S19.8,625.4,27.7,629.9z"/>
<path class="st3" d="M66.9,703.6c9.2,0.1,36.2-15.2,36.2-15.2s-26.5-16.2-35.7-16.3s-16.8,6.8-17,15.5S57.6,703.5,66.9,703.6z"/>
<path class="st3" d="M109.8,753c9.1,1.6,38.4-9.2,38.4-9.2S125,723.6,116,722s-17.8,4-19.5,12.6S100.8,751.4,109.8,753z"/>
<path class="st3" d="M99.4,621.1c-3.1,8.2-28,26.5-28,26.5s-6.6-29.1-3.4-37.3s12.7-12.4,21.4-9.5S102.6,612.9,99.4,621.1z"/>
<path class="st3" d="M148.9,679.5c-5.6,6.9-35.1,17.4-35.1,17.4s3-29.7,8.6-36.6c5.8-7,16-8.3,23.4-3c6.9,4.8,8.7,14.2,3.9,21.1
	C149.4,678.8,149.2,679.2,148.9,679.5z"/>
<path class="st3" d="M188.7,742.5c-4.3,7.7-31.5,22.8-31.5,22.8s-2.4-29.7,1.9-37.4s14.4-10.7,22.5-6.7S193,734.8,188.7,742.5z"/>
<path class="st1" d="M166.4,799c0,0,19.6-71.8-8.6-123.2c-11.8-21.6-16.4-46.1-12.2-70.1c2-11.4,5.2-22.6,9.4-33.4"/>
<path class="st4" d="M137.3,539.8c0.3,8.7,17.9,33.4,17.9,33.4s15.8-25.8,15.5-34.5s-8.1-15.5-17.3-15.2S137,531.1,137.3,539.8z"/>
<path class="st4" d="M111.5,589c5.3,7.1,34.3,18.8,34.3,18.8s-1.6-29.7-6.9-36.9c-5.5-7.2-15.7-8.9-23.3-3.9
	c-7.1,4.5-9.3,13.9-4.8,21C111,588.3,111.3,588.6,111.5,589z"/>
<path class="st4" d="M115.7,671.3c8.4,3.7,39.7-0.1,39.7-0.1s-17.3-24.9-25.7-28.6s-18.3-0.2-22.2,7.7S107.3,667.7,115.7,671.3z"/>
<path class="st4" d="M133.7,733c7.6,4.9,39.1,6.2,39.1,6.2s-12.6-27.3-20.2-32.2c-7.6-4.9-17.7-3.2-23.2,4c-5,6.8-3.5,16.3,3.3,21.3
	C133,732.5,133.4,732.8,133.7,733z"/>
<path class="st4" d="M180.9,608.3c-6.4,6.3-37,13.6-37,13.6s6.5-29.2,12.9-35.4c6.6-6.3,16.8-6.5,23.6-0.4
	c6.3,5.5,6.9,15.1,1.4,21.4C181.5,607.8,181.2,608.1,180.9,608.3z"/>
<path class="st4" d="M201,680.7c-8.1,4.2-39.6,2.5-39.6,2.5s15.4-26,23.5-30.2s18.2-1.4,22.7,6.2S209.1,676.5,201,680.7z"/>
<path class="st4" d="M210.4,753.6c-7.2,5.4-38.6,8.8-38.6,8.8s10.6-28.1,17.8-33.5c7.3-5.4,17.5-4.3,23.5,2.5
	c5.4,6.4,4.7,16-1.7,21.4C211,753.1,210.7,753.3,210.4,753.6z"/>
<linearGradient id="SVGID_1_" gradientUnits="userSpaceOnUse" x1="922.9726" y1="-4.462" x2="922.9726" y2="615.1331" gradientTransform="matrix(1 0 0 -1 -82.53 799.8)">
	<stop  offset="0" style="stop-color:#808080;stop-opacity:0.25"/>
	<stop  offset="0.54" style="stop-color:#808080;stop-opacity:0.12"/>
	<stop  offset="1" style="stop-color:#808080;stop-opacity:0.1"/>
</linearGradient>
<path class="st5" d="M990.7,380c0.6-1.6-3.9-10.7-3.9-11.2s-4.7-5.5-4.7-8.4s-6.2-8.9-6.2-8.9s-8.2-3.4-9.2-10.9S957,333,957,333
	l0,0c0,0,0-0.7,0.1-1.7c0-2.3-0.1-6.5-1.1-8.7c-1.1-2.1-2.9-3.6-5.1-4.3c0,0-0.9-5.8-2.7-7.6c-2-2.1-2.8-5.2-2.1-8
	c0.9-2.8-1.2-10-5.6-11s-9.3-2.7-9.3-2.7s-0.5,0.1-1.2,0.2l-0.6-0.2c-1,0.2-2.1,0.3-3.2,0.4c-0.9,0-1.8-0.3-2.5-0.8
	c-1.5-1.6-13.7-4.8-15.9-4.8s-8.7-3-8.7-3l-6.4-4.9c-1.8-1.4-5.2-7-5.7-7.8l-0.1-0.1l0,0l0,0c-0.6-1.3-1-2.6-1.4-3.9l0,0
	c2.2-2.3,4.1-4.9,5.6-7.7c0.2-0.3,0.3-0.6,0.4-0.9c0.3,0,0.7-0.1,1-0.2c0.1,0,0.3-0.1,0.4-0.1c1.5-0.8,2.7-2.2,3.2-3.8l0,0
	c0.1-0.3,0.2-0.6,0.3-1c0-0.1,0-0.2,0.1-0.3s0.1-0.5,0.1-0.7s0-0.3,0.1-0.4s0.1-0.5,0.1-0.7s0-0.2,0-0.4c0-0.3,0.1-0.6,0.1-0.9l0,0
	c0.1-1.1,0.3-2.1,0.5-3.1l0,0l0,0c0.9-4,3.3-7.5,5.1-11.2l0,0c0.2-0.5,0.5-1.1,0.7-1.6s0.4-1.2,0.6-1.8l0.2-0.6
	c0.1-0.4,0.2-0.9,0.3-1.3c0-0.2,0.1-0.4,0.1-0.6c0.1-0.6,0.2-1.2,0.2-1.9c0.3-3.6-0.2-7.2-1.5-10.5c-1.1-2.8-2.8-5.3-3.9-8.1
	c-1.7-4.2-2.2-9-4.3-13.1c-3.5-6.8-11.8-10.2-18.7-7.6c-3.3,1.2-6.1,3.6-9.4,4.6c-4.4,1.4-9.2,0.4-13.8-0.3s-9.7-0.7-13.4,2.3
	c-4.2,3.4-5.4,9.9-9.4,13.7c-1.7,1.6-3.8,2.6-5.5,4.1c-1.2,1-2.2,2.3-2.8,3.8c0,0.1-0.1,0.2-0.1,0.3s-0.1,0.2-0.1,0.4
	s-0.1,0.3-0.1,0.4s0,0.2,0,0.3c0,0.3,0,0.5,0,0.8l0,0c0,0.3,0.1,0.5,0.1,0.8c0,0.1,0,0.1,0,0.2s0.1,0.4,0.2,0.6c0,0,0,0.1,0,0.1
	c0.1,0.2,0.2,0.4,0.3,0.7l0.2,0.3l0.1,0.3c0.6,1.1,1.1,2.3,1.4,3.5c0.2,0.8,0.1,1.6-0.1,2.3c-0.4,0.8-1,1.6-1.7,2.2
	c-3,3.1-5.3,6.8-6.8,10.9c-0.2,0.5-0.3,0.9-0.5,1.4l0,0l0.2,0c0.4,0.1,0.9,0.2,1.3,0.3c0.2,0,0.5,0.1,0.8,0.1c1,0.1,2.1,0,3.1-0.2
	c0.2,0,0.5-0.1,0.8-0.2c1-0.3,2-0.7,3-1.1c0,0.3,0,0.6,0,0.9s0,0.3,0,0.5c0,13.4,7.6,25.7,19.7,31.7c0,0.3,0.1,0.6,0.1,1
	s0.1,0.5,0.1,0.8l-0.4-0.4c0,0-2.7-1.3-5.3,2.5s-7.3,5.7-7.3,5.7s-27.3,4.3-28.4,7.9l-12.8,0.7c0,0-4.5,0.6-5,10s-2.8,10.3-2.8,10.3
	s-5.2,9.2-4.8,14s-4,7.2-4,7.2l-0.6,8.5c0,0-5-0.7-6.3,5.1s-3.8,8.5-3.8,8.5s-8.3,6.9-8.7,12.7l-5.1,3.1c0,0-11.9-2.7-14.6-7.5
	l-0.8-0.8c0,0-0.1-0.1-0.1-0.1c0,0,0,0,0,0.1c-1.8-1.7-5.5-5.2-5-4.4c0.4,0.7,0.4,1.6,0.2,2.4l-0.9-1l-2.4-2.6
	c0,0-19.2-18-30.4-19.4l0,0c-0.2-0.3-0.9-3.1-2.8-1.4c-6.4,5.8-6.8,15.7-1,22.1c0.3,0.3,0.6,0.6,0.9,0.9l18,16.8l0.5,0.3l3.9,5
	c-0.7,1.6-1.2,3.1-1.7,4.5c0,0,0,0.1,0,0.1c-0.1,0.3-0.2,0.6-0.3,0.9l-0.1,0.3c-0.1,0.3-0.2,0.6-0.2,0.8s-0.1,0.3-0.1,0.5
	s0,0.2-0.1,0.3c-0.4,1.5-0.7,2.6-0.8,3.3l-1-0.3l1,0.4c0,0,0,0.1,0,0.2l-0.1,0.3l0.9,0.4c5.3,2.3,31.5,13.8,32.9,15.5
	c1.5,1.9,11.4,7.6,20.4,2.8s11-12.1,11-12.1s8.7-12.1,9-13.9s7.1-3.9,7.1-3.9s0.6,20-2.8,27.3s-9.9,39.7-9.9,39.7
	c0.4-0.1,0.9-0.1,1.3-0.1c-0.2,1.2-0.4,1.9-0.4,1.9c0.5-0.1,1.1-0.1,1.6,0c-0.5,3.7-3.2,20.8-3.2,20.8s-0.9,7.8-2.4,10.4
	s-1.7,16.7-1.7,16.7l-2.4,10.1c0.3,0.6,0.6,1.2,0.9,1.8l0,0c0,0,2.6,5.7,6.9,8.9c-0.2,1.6-0.6,3.2-1.2,4.6c-0.9,2.3-1.3,4.7-1.2,7.2
	c0,0-2.5,11.5-2.2,14.8s-1.7,11.3-1.7,11.3l-2.8,25.9c0,0-1.8,22.5-0.9,28.6s-0.6,14.5-0.6,14.5s1.8,17.7,1.3,19.7
	s-2.7,10.3-1.3,14.9s0.6,17.3,0.6,17.3s0.9,16.7,1.9,22.1s-0.3,12.2-0.3,12.2s-1,11.5-1.5,11.5s-4.3,7.9,3.6,15.7s3,6.5,3,6.5
	s-6.3-3.1-5.6,3.3c0.7,6.1,1.7,4.5,1.8,4.3l-1.5,4.9l1,0.2l-0.9,1c-0.9,1.1-1.9,2.2-3,3.1c-1.8,1.3-2,4.3-2,4.3
	s-11.1,12.1-21.5,18.2c-5.5,3.2-10.2,5.9-12.2,8.2c-1.8,2-1.5,3.7,2.3,4.9c8.1,2.7,22.4,4,32.6,0.6c6.1-2,11.6-5.6,15.9-10.3
	c0,0,6.5-3.3,12.8-2.1s18.9-7,18.9-7l-0.2-2.1l-0.7-6.1c-0.9-1-1.2-2.4-1-3.7c0.1-1.8-0.1-3.6-0.5-5.4c-0.1-0.6-0.2-1.2-0.3-1.7
	l1.2-0.2c0,0-1.5-7.6,1.2-9.1s1.9-21,1.9-21s-3.4-4.5-5.2-5.2s-0.2-10,0.2-11.2s2.7-24.3,2.7-24.3s-0.9-7.3,0.3-10.4
	s-1.4-15.1-1.4-15.1s-0.9-1.5,0.8-3.3s1-17.7,1-17.7s-0.1-8-0.1-10.1s1.8-9.7,3.5-12.2s0.6-10.4,0.6-10.4l0,0l0.1-0.6
	c0-0.2,0.1-0.5,0.1-0.8l0.1-0.8c0.7-4.4,1.7-8.7,3-13c2-6.3,4.2-17.3,4.2-17.3l14-36.4l0.2-0.4c0,0,6.5,11.9,6.5,23
	c0,0,1.7,13.3,1.2,16.8s1.3,20.3,1.3,20.3s2,24.2,2,25.2s2.4,19.7,3.9,22.5s-1.5,11.5-2.4,12.4s0.3,22.8,0.3,22.8
	s-2.2,17.3-2.7,20.9s-2.2,17.3-0.8,22.7s0.9,6.1,0.9,6.1s5.4,5.5,2.2,6c-4.5,1-7.3,5.4-6.3,9.8c0.1,0.4,0.2,0.7,0.3,1.1
	c1.9,5.5,4.1,10.8,6.6,16c0,0,0.9-0.2,2.5-0.5v1.8l0.2,8.9c0,0,1,8.5,0.5,10.4c-0.4,1.4-1,8.1-1.3,11.6c-0.1,1.3-0.2,2.1-0.2,2.1
	s0,7.9,16.7,5.5s19.7-8.9,19.7-8.9s0-0.3,0.1-0.8c0.2-1.5,0.8-4.7,1.2-6.5c0.6-2.4-4.8-13.1-4.8-13.1s-0.9-7.3-2.4-8.9
	c-0.6-0.9-1-2-1.2-3.1c-0.1-0.6-0.3-1.2-0.4-1.8c0.4,0,0.7,0.1,1.1,0.2c0,0-0.9-5.2,2.6-6.9s2.5-5.1,2.1-6.6s1.3-9.8,1.3-9.8
	c-0.5-1.7,0-3.5,1.2-4.8c2.1-2.1,3.8-16.7,3.8-16.7l0.3-56.3c0,0,1.1-10-0.1-14s-2.4-11.8-0.8-13.9s0.2-11.8,0.2-11.8
	s0-20.4,2.3-25.5s1.5-37.1,1.5-37.1l0.6-21c0,0,4.9-4.6,3.8-28.8c5.2-0.3,11.1-0.5,12,0.2c1.7,1.3,12.3,8.2,18.6,3.9
	c1.3-0.6,7.5-5.8,7.5-5.8l-2.6-44.7c1.7,2.5,2.7,4.1,2.7,4.1c0-6.3,17.7-26.5,17.7-26.5s16.5-21.3,20.1-23.9s10.7-16,10.7-16
	c1-2.6,2.2-5,3.6-7.5C995.5,388.8,990.1,381.6,990.7,380z M952,395.6c-4.5,0.5-14,10.7-14.1,13c-0.1,1.2-1.1,2.8-2,4
	c-0.1-0.9-0.2-1.8-0.2-2.8c-1.1-13.2-2.2-29.2-1.7-30.8c0.9-2.7,0.6-14.8,0.6-14.8l0,0l0.2-0.2c3,9.4,12.4,20.4,12.4,20.4
	s1.7,4.8,3.6,4.9S952,395.6,952,395.6z"/>
<path class="st6" d="M711.3,392.2c0,0,5.5-28.7,23.1-28.9l12.9,26.5l-8.6,5.9C738.7,395.8,720.1,396.4,711.3,392.2z"/>
<path class="st7" d="M747.3,389.9l-8.6,5.9c0,0-13.1,0.4-22.5-1.9c-1.7-0.4-3.3-1-4.9-1.7c0,0,0-0.2,0.1-0.5c0,0,0-0.1,0-0.1
	c0.8-3.6,1.9-7.1,3.3-10.5c0.5-1.3,1.2-2.6,1.8-4c2.6-5,6.2-9.8,11.2-12.2c1.8-0.9,3.8-1.4,5.9-1.5h0.5h0.3l0.3,0.6l4.3,8.9
	L747.3,389.9z"/>
<path class="st6" d="M893.4,509.1c0,0,18.5-1.8,20.1-0.4s12.1,8.1,18.3,3.8c6.2-4.3,2.1-19.2,2.1-19.8s-0.6-21.8-0.6-21.8L922.3,456
	l-13.9-26.2L880,427l0.7,41.6l-0.2,21.3L893.4,509.1z"/>
<path class="st7" d="M893.4,509.1c0,0,18.5-1.8,20.1-0.4s12.1,8.1,18.3,3.8c6.2-4.3,2.1-19.2,2.1-19.8s-0.6-21.8-0.6-21.8L922.3,456
	l-13.9-26.2L880,427l0.7,41.6l-0.2,21.3L893.4,509.1z"/>
<path class="st8" d="M730.7,362.6c0,0-1.5,18-12.7,18.3c0,0-3.2-1.9-7.5-5.1c-9.9-7.4-25.5-21.6-21.2-34.8c6.2-18.9,36.4,16,36.4,16
	l2.3,2.6L730.7,362.6z"/>
<path class="st7" d="M730.7,362.6c0,0-1.5,18-12.7,18.3c0,0-3.2-1.9-7.5-5.1l-1-1.2c1.9,1,4,1.6,6.2,1.7c3.5,0.1,6.6-1.9,8-5.1
	c1.2-2.3,2.2-4.7,3.1-7.2c0.5-1.4,0.9-2.9,1.2-4.4L730.7,362.6z"/>
<path class="st9" d="M725.8,395.3l-2.5-3.3l-8.5-11l-4.3-5.6c1.9,1,4,1.6,6.2,1.7c2.8,0.1,6-1,8-5.1c1.2-2.3,2.2-4.7,3.1-7.2
	c1.4-4,1.4-6,0.9-6.7s3.1,2.7,4.9,4.3l0.1,0.1l0.8,0.8l0.3,0.6l4.3,8.6c0,0,0,0.1,0,0.4C739.4,375.6,740.8,392.9,725.8,395.3z"/>
<path class="st6" d="M814.5,776.1c0,0-12.4,8.1-18.6,7s-12.6,2.1-12.6,2.1c-4.3,4.7-9.7,8.2-15.7,10.2c-10,3.4-24.1,2.1-32.1-0.6
	c-3.8-1.3-4.1-2.9-2.3-4.9c2-2.2,6.7-4.9,12-8.1c10.2-6.1,21.2-18,21.2-18s0.2-3,1.9-4.3c1.1-0.9,2.1-2,3-3.1
	c1.6-1.9,3.1-3.8,3.1-3.8l36.6,1.1c0,0,0.6,2.6,1.1,5.3c0.4,1.7,0.6,3.5,0.5,5.3c-0.2,1.3,0.2,2.7,1,3.7l0.7,6L814.5,776.1z"/>
<path class="st6" d="M890.9,786.3c-0.4,1.8-1,4.9-1.2,6.4l-0.1,0.8c0,0-3,6.5-19.4,8.9s-16.4-5.5-16.4-5.5s0.1-0.8,0.2-2.1
	c0.3-3.5,0.9-10.1,1.3-11.5c0.6-1.9-0.5-10.4-0.5-10.4l-0.2-8.8l-0.1-6.1l27.2-2.8c0.2,2,0.5,4.1,0.9,6.1c0.2,1.1,0.6,2.2,1.2,3.1
	c1.5,1.6,2.4,8.9,2.4,8.9S891.5,784,890.9,786.3z"/>
<path class="st7" d="M810.9,753.6c0,0,0.6,2.6,1.1,5.3c-4,0.7-21.2,3.7-25.5,1.6c-4.9-2.4-15.4-3.7-15.4-3.7l0.2-0.6
	c1.6-1.9,3.1-3.8,3.1-3.8L810.9,753.6z"/>
<path class="st7" d="M882.6,761.3c-6.9-1.2-22,1.7-28,2.9l-0.1-6.1l27.2-2.8C881.9,757.3,882.2,759.3,882.6,761.3z"/>
<path class="st10" d="M898,537.1l-0.6,20.9c0,0,0.7,31.8-1.5,36.8s-2.2,25.3-2.2,25.3s1.5,9.6-0.2,11.7s-0.4,9.8,0.7,13.8
	s0.2,13.9,0.2,13.9l-0.3,55.9c0,0-1.6,14.5-3.7,16.6c-1.2,1.3-1.7,3.1-1.2,4.7c0,0-1.8,8.3-1.3,9.8s1.3,4.9-2.1,6.5
	s-2.5,6.8-2.5,6.8c-8.1-1.9-31.2,3.3-31.2,3.3c-2.5-5.1-4.7-10.4-6.5-15.8c-1.5-4.3,0.7-8.9,4.9-10.5c0.3-0.1,0.7-0.2,1-0.3
	c3.1-0.5-2.2-5.9-2.2-5.9s0.6-0.7-0.9-6.1s0.3-19,0.7-22.5s2.7-20.7,2.7-20.7s-1.2-21.7-0.3-22.6s3.8-9.5,2.4-12.3
	s-3.9-21.3-3.9-22.3s-1.9-25-1.9-25s-1.8-16.7-1.3-20.3s-1.2-16.7-1.2-16.7c0-11-6.4-22.8-6.4-22.8l-0.2,0.4l-13.7,36.1
	c0,0-2.2,10.9-4.1,17.2c-1.2,4.2-2.2,8.5-2.9,12.8l-0.1,0.8c0,0.3-0.1,0.6-0.1,0.8l-0.1,0.6l0,0c0,0,1,7.8-0.6,10.4
	s-3.4,10.1-3.4,12.1s0.2,10.1,0.2,10.1s0.6,15.8-1,17.6s-0.8,3.2-0.8,3.2s2.7,12,1.5,15.1s-0.3,10.3-0.3,10.3s-2.4,22.9-2.7,24.1
	s-1.9,10.4-0.2,11.1s5.2,5.2,5.2,5.2s0.8,19.4-1.9,20.9s-1.2,9-1.2,9s-21.4,4.1-26.3,1.8s-15.4-3.7-15.4-3.7l1.5-4.9
	c-0.1,0.2-1.1,1.8-1.8-4.3c-0.7-6.4,5.5-3.3,5.5-3.3s4.9,1.2-3-6.5s-4-15.5-3.5-15.5s1.5-11.4,1.5-11.4s1.3-6.8,0.3-12.1
	s-1.9-21.9-1.9-21.9s0.7-12.6-0.6-17.2s0.9-12.9,1.3-14.8s-1.4-19.5-1.4-19.5s1.5-8.3,0.6-14.3s0.9-28.4,0.9-28.4l2.7-25.7
	c0,0,1.9-8,1.6-11.2s2.2-14.6,2.2-14.6c-0.2-2.4,0.3-4.9,1.2-7.1c1.5-3,2.1-12.7,2.1-12.7l14.2-32.5l7-28.7l93.9-0.9
	c0,0,0.3,2.5,0.9,7s1.4,11.2,2.3,19.5c0.8,7.5,1.7,16.3,2.6,26.2C904,531.4,898,537.1,898,537.1z"/>
<path class="st8" d="M889.3,278l-21.9,23.4c0,0-28.1-11.2-25.1-15.1c1.1-1.5,1-6.2,0.3-11.4c-1-8.2-3.3-17.6-3.3-17.6s49.1-8,45,0.3
	c-1.5,3-1.2,6.6-0.3,9.8C885.2,271.2,887,274.8,889.3,278z"/>
<path class="st7" d="M884.3,257.6c-1.5,3-2.2,3.3-1.3,6.6c-6.4,6.9-14.6,14.4-24.8,14.4c-5.4,0-10.8-1.2-15.7-3.7
	c-1-8.2-3.3-17.6-3.3-17.6S888.4,249.3,884.3,257.6z"/>
<path class="st8" d="M893.5,242.5c-0.3,19.4-16.4,34.9-35.8,34.6c-19-0.3-34.3-15.6-34.6-34.6c0-0.2,0-0.3,0-0.5
	c0.1-19.4,16-35.1,35.5-35C877.9,207.2,893.6,223.1,893.5,242.5L893.5,242.5L893.5,242.5z"/>
<path class="st7" d="M898.5,474.8c-4.7,0-20.2,0.2-37.5,0.4h-0.2l-5.7,0.1h-0.2c-20.6,0.3-40.9-3.7-49-2.9c-17.3,1.6,6.2-16,6.2-16
	c12.9,3.1,26.2,4.5,39.4,4l5-0.3c15.7-0.9,31.5-2.4,39.8-4.9C896.9,459.9,897.7,466.5,898.5,474.8z"/>
<path class="st11" d="M898.5,473.9c-4.7,0-20.2,0.2-37.5,0.4h-0.2l-5.7,0.1h-0.2c-20.6,0.3-40.9-3.7-49-2.9c-17.3,1.6,6.2-16,6.2-16
	c12.9,3.1,26.2,4.5,39.4,4l5-0.3c15.7-0.9,31.5-2.4,39.8-4.8C896.9,459,897.7,465.6,898.5,473.9z"/>
<path class="st7" d="M848.8,287.8l-27.2,12.7l-21,162.4c0,0,12.4-5.6,19.5-2.1s29,0.3,29,0.3s16-0.9,18.3,0.9s30.2-7.4,30.2-7.4
	s5-11.2,1.2-13s1.2-19.2,1.2-19.2l-2.4-117.2l-4.7-15.1l-12.7-7.7l-13,10.4l-6.2,0.9L848.8,287.8z"/>
<path class="st9" d="M848.8,286l-27.2,12.7l-21,162.4c0,0,12.4-5.6,19.5-2.1s29,0.3,29,0.3s16-0.9,18.3,0.9s30.2-7.4,30.2-7.4
	s5-11.2,1.2-13s1.2-19.3,1.2-19.3l-2.4-117.2l-4.7-15.1l-12.7-7.7l-13,10.4l-6.2,0.9L848.8,286z"/>
<path class="st7" d="M848.3,293.5c0,0,7.8,9.3,7.7,11.2s-0.5,6.5-0.5,6.5l-5.9,12c0,0-3.2,14.9-3.2,18s-5.2,30-5.2,30l-6.2,41.4
	l-7.8,54.3l8,13.7l9.5-8l12.6-96.8l2.7-19.1c0,0,2.8-34.3,2.8-37.9s-1.6-12.9-1.6-12.9s1.9-8.9,9.9-11s-0.6-0.5-0.6-0.5l-4.6-3.7
	l-4,1.6C861.8,292.7,850.7,289.4,848.3,293.5z"/>
<path class="st2" d="M847.4,292.7c0,0,7.8,9.3,7.7,11.2s-0.5,6.5-0.5,6.5l-5.9,12c0,0-3.3,14.9-3.3,18s-5.2,30-5.2,30l-6.2,41.4
	l-7.8,54.3l8,13.8l9.5-8l12.6-96.8l2.7-19.1c0,0,2.8-34.3,2.8-37.9s-1.6-12.9-1.6-12.9s1.9-8.9,9.9-11s-0.6-0.4-0.6-0.4l-4.6-3.7
	l-4,1.6C860.9,291.9,849.8,288.5,847.4,292.7z"/>
<path class="st7" d="M842.3,277.1c0,0-1.2,0.9-1.5,6.8s-4.4,19.2-4.4,19.2s15.4-10.6,23.1-9.5L842.3,277.1z"/>
<path class="st9" d="M842.3,275.4c0,0-1.2,0.9-1.5,6.8s-4.4,19.2-4.4,19.2s15.4-10.6,23.1-9.5L842.3,275.4z"/>
<path class="st7" d="M884.3,272.4L860,293.7c0,0,20.4,12.1,23.1,15.1s5.3-29,5.3-29L884.3,272.4z"/>
<path class="st9" d="M885.2,270.6l-24.3,21.3c0,0,20.4,12.1,23.1,15.1s5.3-29,5.3-29L885.2,270.6z"/>
<path class="st7" d="M843.1,277.1c0,0-2.7-1.3-5.2,2.5c-1.8,2.5-4.4,4.5-7.2,5.6c0,0-26.9,4.3-28,7.8l-12.6,0.7c0,0-4.4,0.6-4.9,9.9
	s-2.8,10.2-2.8,10.2s-5.2,9.2-4.7,13.9s-4,7.1-4,7.1l18.5,48.1c0,0,0.6,19.8-2.8,27.1s-9.8,39.4-9.8,39.4s2.7-0.6,2.5,1.2
	s-3.2,21.2-3.2,21.2s-0.9,7.7-2.4,10.4s-1.6,16.6-1.6,16.6l-2.4,10.1c0,0,5.6,12.6,14.2,10.8s24.1-35.3,24.1-35.3l9.9-36.2l7.7-35.8
	l2.2-24.3l3.5-53.7l5.2-35.5C839.5,298.7,845.2,279.6,843.1,277.1z"/>
<path class="st6" d="M842.3,275.4c0,0-2.7-1.3-5.2,2.5c-1.8,2.5-4.4,4.5-7.2,5.6c0,0-26.9,4.3-28,7.8l-12.6,0.7c0,0-4.4,0.6-4.9,9.9
	s-2.8,10.2-2.8,10.2s-5.2,9.2-4.7,13.9s-4,7.1-4,7.1l18.5,48.1c0,0,0.6,19.8-2.8,27.1s-9.8,39.4-9.8,39.4s2.7-0.6,2.5,1.2
	S778,470,778,470s-0.9,7.7-2.4,10.4c-1.5,2.7-1.6,16.6-1.6,16.6l-2.4,10.1c0,0,5.6,12.6,14.2,10.8s24.1-35.4,24.1-35.4l9.9-36.2
	l7.7-35.8l2.2-24.3l3.5-53.7l5.2-35.5C838.5,297,844.3,277.9,842.3,275.4z"/>
<path class="st7" d="M747.3,389.9l-8.6,5.9c0,0-13.1,0.4-22.5-1.9l-4.8-2.1l-1-0.4l1,0.3c5,1.5,8.8,1.4,11.8,0.4
	c12.1-4.1,10.8-24.1,10.3-28.7c0-0.5-0.1-0.8-0.1-0.9c0,0,0,0,0-0.1l0.1,0.1c0.2,0.3,0.4,0.5,0.6,0.8c0.2,0.2,0.3,0.4,0.5,0.6l0,0
	l4.3,8.6c0,0,0,0.1,0,0.4L747.3,389.9z"/>
<path class="st6" d="M777,332l-4.2,1.2l-0.6,8.4c0,0-4.9-0.7-6.2,5s-3.7,8.4-3.7,8.4s-8.1,6.8-8.6,12.6l-5,3.1
	c0,0-11.7-2.7-14.3-7.4c0,0,5.3,38.2-23.1,28.9c0,0,31.8,13.9,33.3,15.8s11.2,7.5,20.1,2.8s10.8-12,10.8-12s8.6-12,8.9-13.8
	s7-3.9,7-3.9l12.7-30.8L777,332z"/>
<path class="st7" d="M880.9,290.1l4.3-19.5c0,0,1.9,6.4,3.8,7.8l6.4,4.9c0,0,6.4,3,8.6,3s14.2,3.1,15.7,4.7s7.4,0.4,7.4,0.4
	s4.9,1.6,9.2,2.7c4.3,1,6.4,8.1,5.5,11c-0.7,2.8,0,5.9,2.1,8c1.8,1.8,2.7,7.5,2.7,7.5c2.2,0.7,4,2.3,5,4.3c1.5,3.2,1,10.4,1,10.4
	l-22,31.1c0,0,0.3,12-0.6,14.6s3.1,47.9,3.1,47.9l4.6,77.8c0,0-6.1,5.2-7.4,5.8c-1.3,0.6-2.7-27.5-2.7-28.5s-34.2-51.2-34.2-51.2
	s-4.6-7.4-4.6-9s-4.3-16.6-4.3-16.6l-6.5-28.9L880.9,290.1z"/>
<path class="st6" d="M954.3,333.6c0,1,0,1.7,0,1.7l-22,31l0,0c0,0,0.3,12-0.6,14.6c-0.5,1.5,0.6,17.5,1.7,30.5
	c0.7,9.4,1.4,17.4,1.4,17.4l2,33l2.6,44.8c0,0-6.1,5.2-7.4,5.8c-1.3,0.6-2.7-27.5-2.7-28.5s-34.2-51.2-34.2-51.2s-4.6-7.4-4.6-9
	s-4.3-16.6-4.3-16.6l-6.5-28.9l3-88.2l2.4-19.5c0,0,3.7,6.4,5.6,7.8l6.4,4.9c0,0,6.4,3,8.6,3s14.2,3.1,15.7,4.7s7.4,0.4,7.4,0.4
	s4.9,1.6,9.2,2.7c4.3,1,6.4,8.1,5.5,11c-0.7,2.8,0,5.9,2.1,8c1.8,1.8,2.7,7.5,2.7,7.5c2.2,0.7,4,2.3,5,4.3
	C954.2,327.2,954.3,331.3,954.3,333.6z"/>
<path class="st7" d="M773.5,727.8c0.7,0,31.8,1.2,31.2,6.2S773.5,727.8,773.5,727.8z"/>
<path class="st7" d="M780.4,736.2c0,0,20.9,3.4,15.4,6.5S780.4,736.2,780.4,736.2z"/>
<path class="st7" d="M858,724.5c0,0,34.6,3,29.4,6.8s-17.5,4.4-18,4.6S858,724.5,858,724.5z"/>
<path class="st7" d="M853.8,739.7c0,0,19.2,3.2,19.8,7S853.8,739.7,853.8,739.7z"/>
<path class="st7" d="M864.5,650.7c0,0,17.6,4.1,18.6,7L864.5,650.7z"/>
<path class="st7" d="M796.5,663.4c0,0-9.2,2.7-0.3,8S796.5,663.4,796.5,663.4z"/>
<path class="st7" d="M837.2,521.2c1,0,17.2-5.3,22.8-3c4,1.5,8.3,2.3,12.6,2.4L837.2,521.2z"/>
<path class="st7" d="M839.3,538.1l-0.2,1.5l-13.8,36.1c0,0-2.2,10.9-4.1,17.2c-1.2,4.2-2.2,8.5-2.9,12.8l12.2-75.7L839.3,538.1z"/>
<path class="st10" d="M860.8,474.3l-5.7,0.1h-0.2l-3.4-14.9l5-0.3L860.8,474.3z"/>
<path class="st8" d="M930.6,456.3l-3.7,3l-12.3,10.1c0,0-33.3,17.8-42.5,0.9c-8.1-14.9,29.7-25.5,38.8-27.8c1.2-0.3,1.9-0.5,1.9-0.5
	L930.6,456.3z"/>
<path class="st7" d="M788.4,310.9c0,0,6.5,3,8,7.1S788.4,310.9,788.4,310.9z"/>
<path class="st7" d="M768.3,355.2c0,0-9.5,11.5-5.6,16S768.3,355.2,768.3,355.2z"/>
<path class="st7" d="M937.5,317.4c0,0-8.9,0.9-9.2,8.6L937.5,317.4z"/>
<path class="st7" d="M855.3,438.7c0.9-0.9,21.3-31.1,26-28.4L855.3,438.7z"/>
<path class="st7" d="M893.5,242.5c0,5.8-1.4,11.5-4.2,16.6l-0.3,0c-2.2-0.5-3.4-3.1-5.1-4.7c-2.2-2-5.4-2.5-8-1.1
	c-2.6,1.6-4.2,4.5-3.9,7.6c-1.1-4.7-0.8-9.8-1.9-14.5s-4.4-9.5-9-9.6c-2,0-4.2,0.7-5.7-0.8c-0.8-0.9-1-2.3-1.7-3.4
	c-3.2-5.2-13.1-2.6-17.1,0.1s-8.7,7-13.7,9.3c0.1-19.4,16-35.1,35.5-35C877.9,207.2,893.6,223.1,893.5,242.5L893.5,242.5
	L893.5,242.5z"/>
<path class="st12" d="M853.9,231.7c0.6,1.1,0.8,2.5,1.7,3.3c1.4,1.5,3.7,0.7,5.7,0.8c4.5,0.1,7.8,4.9,9,9.6s0.7,9.8,1.9,14.5
	c-0.2-3.1,1.3-6,3.9-7.6c2.6-1.4,5.8-0.9,8,1.1c1.7,1.6,2.9,4.2,5.1,4.7s4.4-1.7,5.2-4c0.8-2.3,0.8-4.9,1.3-7.4
	c1-4.6,4-8.4,5.7-12.8c2-5.3,1.9-11.2-0.2-16.5c-1.1-2.8-2.8-5.3-3.9-8.1c-1.7-4.2-2.1-9-4.2-13c-3.5-6.7-11.7-10.1-18.4-7.6
	c-3.2,1.2-6,3.5-9.3,4.6c-4.4,1.4-9,0.4-13.6-0.3s-9.5-0.7-13.2,2.3c-4.2,3.4-5.3,9.9-9.3,13.6c-1.7,1.6-3.7,2.6-5.4,4s-3.2,3.6-3,6
	c0.3,3.1,3.3,5.8,2.2,8.7c-0.4,0.8-1,1.6-1.6,2.2c-3.3,3.5-5.7,7.6-7.2,12.2c7.9,2.5,16.5-6.2,22.7-10.4
	C840.8,229.1,850.6,226.5,853.9,231.7z"/>
<path class="st7" d="M930.6,456.3l-3.7,3c-3.2-5.4-16.6-16.2-16.6-16.2l0.6-0.6c1.2-0.3,1.9-0.5,1.9-0.5L930.6,456.3z"/>
<path class="st9" d="M934.1,450.8c0,0-1.3,3.3-2.7,6.1s-2.9,5.4-2.9,3.3c-0.2-4.1-17.3-18-17.3-18l2.3-2.3l2.7-2.6L934.1,450.8z"/>
<path class="st7" d="M934.7,428.9l2,33c-4.6-7.1-17.2-25.5-25.3-24.9l19.7-22.6c0.8-0.9,1.6-1.9,2.3-2.9
	C934,421,934.7,428.9,934.7,428.9z"/>
<path class="st7" d="M934.1,450.8c0,0-1.3,3.3-2.7,6.1c-5.2-7.1-12.2-15.4-17.9-17l2.7-2.6L934.1,450.8z"/>
<path class="st6" d="M948.9,331.1l5.3,4.1c0,0,8.9,0.1,9.8,7.5s9,10.8,9,10.8s6.1,6.1,6.1,8.9s4.6,7.8,4.6,8.3s4.4,9.5,3.8,11.1
	s4.7,8.7,3.1,11.4c-1.3,2.4-2.5,4.9-3.6,7.4c0,0-6.9,13.3-10.5,15.8s-19.8,23.7-19.8,23.7s-17.5,20.1-17.5,26.3
	c0,0-17-28.4-27.1-27.7l19.7-22.6c0,0,3.4-3.7,3.5-5.9s9.5-12.4,13.9-12.9c0,0,0.7-6.1-1.2-6.2s-3.6-4.9-3.6-4.9s-13-15.4-13.2-25.1
	S948.9,331.1,948.9,331.1z"/>
<path class="st7" d="M956.8,345.2c0,0-12.4,9.2-9.8,12.1S956.8,345.2,956.8,345.2z"/>
<path class="st7" d="M957.4,383.1c0,0,23.1-7.4,25.4,0H957.4z"/>
<path class="st7" d="M814.5,776.1c0,0-12.4,8.1-18.6,7s-12.6,2.1-12.6,2.1c-4.3,4.7-9.7,8.2-15.7,10.2c-10,3.4-24.1,2.1-32.1-0.6
	c-3.8-1.3-4.1-2.9-2.3-4.9c8.7,1.7,28.1,5.2,33.3,2.7c6.8-3.3,16.6-10.4,16.6-10.4s12.7-1.8,14.5-1.8c1.3,0,11.1-4.1,16.6-6.4
	L814.5,776.1z"/>
<path class="st7" d="M889.7,792.8l-0.1,0.8c0,0-3,6.5-19.4,8.9s-16.4-5.5-16.4-5.5s0.1-0.8,0.2-2.1
	C859.2,796.8,870.5,799,889.7,792.8z"/>
<path class="st7" d="M794.6,343.4c0,0,0,33.7-2.9,37.1S794.6,343.4,794.6,343.4z"/>
<path class="st7" d="M927.9,354.3l4.3,12.1C932.2,366.3,933.9,354.5,927.9,354.3z"/>
<g class="st13">
	<path d="M823.3,225c1.1-2.8-1.8-5.5-2.1-8.5c-0.4,0.8-0.5,1.8-0.5,2.7c0.2,2.2,1.8,4.3,2.3,6.4C823.1,225.4,823.2,225.2,823.3,225z
		"/>
	<path d="M872.4,256.8c-1.1-4.7-0.8-9.6-1.8-14.3s-4.4-9.5-8.9-9.6c-2,0-4.2,0.7-5.7-0.7c-0.9-0.9-1-2.3-1.7-3.4
		c-3.2-5.2-13.1-2.6-17.1,0.1c-6,4-14.4,12.4-22.1,10.5c-0.4,0.9-0.7,1.8-1,2.7c7.9,2.5,16.5-6.2,22.7-10.4c4-2.7,13.9-5.3,17.1-0.1
		c0.6,1.1,0.8,2.5,1.7,3.3c1.4,1.5,3.7,0.7,5.7,0.8c4.5,0.1,7.8,4.9,9,9.6s0.7,9.8,1.9,14.5C871.9,258.9,872.1,257.8,872.4,256.8z"
		/>
	<path d="M894.7,251.3c-0.8,2.3-2.9,4.5-5.2,4s-3.4-3.1-5.1-4.7c-2.2-2-5.4-2.5-8-1.1c-2.5,1.5-4,4.2-3.9,7.2
		c0.6-1.8,1.8-3.3,3.5-4.3c2.6-1.4,5.8-0.9,8,1.1c1.7,1.6,2.9,4.2,5.1,4.7s4.4-1.7,5.2-4c0.4-1.4,0.7-2.8,0.8-4.2
		C894.9,250.4,894.8,250.8,894.7,251.3z"/>
	<path d="M901.6,231.1c-1.7,4.4-4.7,8.2-5.7,12.8c-0.2,0.9-0.3,1.9-0.4,2.8c1-4.6,4-8.4,5.7-12.8c0.7-2,1.2-4,1.4-6.1
		C902.3,229,902,230.1,901.6,231.1z"/>
</g>
<circle class="st14" cx="687.8" cy="337.9" r="0.4"/>
<ellipse class="st15" cx="815.6" cy="794.1" rx="86.3" ry="8.8"/>
<path class="st16" d="M498.1,216.2L236.6,385.9l170.7,307.8c1.6,2.9,4.4,5,7.6,5.8l154.6,37.7c5.5,1.3,11.1-1.3,13.5-6.4l76.7-159.4
	l84.1-112.4l-199.5-236C532.8,209.5,513,206.5,498.1,216.2z"/>
<path class="st7" d="M746.4,460.4l-0.7,1l-49.2,65.8l-0.9,1.2l-33.2,44.4l-65.6,136.3l-1.8,3.8l-9.3,19.2c-2.4,5.1-8.1,7.7-13.6,6.4
	l-154.6-37.7c-3.2-0.8-6-2.9-7.6-5.8L395,668.2l-2.7-4.8L285,469.7l-0.9-1.6l-44.9-80.9l5.4-3.5l41.1-26.6l1-0.6l86.5-56.1l5.5-3.5
	l122-79.2c14.9-9.7,34.7-6.8,46.2,6.8l91,107.7l4,4.8l66,78.1l0.4,0.4l33.2,39.3l4.2,5L746.4,460.4z"/>
<path class="st7" d="M705.8,414.1l-8.1,56l-2.4,16.9l-1.4,36l-0.1,2.8l-7.2,188.1c-0.3,6.6-5.8,11.7-12.4,11.4
	c-0.7,0-1.4-0.1-2.1-0.3l-77.9-17.4l-0.8-0.2l-199.9-44.6l-3.7-0.8l-109.9-24.5l2.5-169.1l0.1-5.6l0.8-51.2l0.8-56.5l86.5-56.1
	l5.5-3.5c80.3,8.2,187,24.1,259.3,35.4l4,4.8l66,78.1L705.8,414.1z"/>
<path class="st4" d="M714.9,347.7l-9.5,66l-8.7,60.4l-2.4,16.9l-1.4,36l-7.3,190.9c-0.3,6.6-5.8,11.7-12.4,11.4
	c-0.7,0-1.4-0.1-2.1-0.3l-78.8-17.6l-199.9-44.6l-113.6-25.4l2.6-174.8l0.8-51.2l0.9-59.9l0.9-61.6c18.8-0.9,49.7,1.1,86.6,4.8
	c82.6,8.3,195.2,25.1,268.8,36.6C684.5,342.6,714.9,347.7,714.9,347.7z"/>
<path class="st7" d="M739,453.4l-42.3,20.7L481,579.9L282.2,415.6L242,382.3l-5.4,3.5l44.9,80.9l-2.6,174.8l113.6,25.4l14.8,26.8
	c1.6,2.9,4.4,5,7.6,5.8l154.6,37.7c5.5,1.3,11.1-1.4,13.5-6.4l9.3-19.2l78.8,17.6c6.4,1.4,12.8-2.6,14.2-9.1
	c0.2-0.7,0.2-1.4,0.3-2.1l7.3-190.9l50.1-67l0.1-1.7L739,453.4z"/>
<path class="st16" d="M236.6,385.9l-17.8,305.3c-0.3,5.8,3.6,11.1,9.3,12.3l473.5,105.1c6.4,1.4,12.8-2.7,14.2-9.1
	c0.1-0.5,0.2-1,0.2-1.6l27.8-338.9L481,587.9L236.6,385.9z"/>
<path class="st7" d="M222,698.2l246-151.8c7.5-4.6,17.2-3,23,3.6l220.2,256.8c0.8,0.9,1.2,0.3,0,0L222,698.2
	C220.6,697.9,220.8,698.9,222,698.2z"/>
<path class="st17" d="M223.8,697.9l243.5-147.1c7.9-4.8,18.2-3.2,24.3,3.8l218.2,250.9c1,1.1,0.8,2.8-0.3,3.7
	c-0.6,0.5-1.5,0.8-2.3,0.6L224.5,702.7c-1.4-0.3-2.3-1.7-2-3.1C222.7,698.9,223.1,698.3,223.8,697.9z"/>
</svg>
