<svg xmlns="http://www.w3.org/2000/svg" viewBox="0 0 656.35 157.45"><defs><style>.cls-1{fill:#231f20;}.cls-2{fill:#29aae2;}</style></defs><title>Asset 2</title><g id="Layer_2" data-name="Layer 2"><g id="Layer_1-2" data-name="Layer 1"><path class="cls-1" d="M337.36,141.67c-.22,2.6,1.73,4.11,6.49,4.11,15.79,0,55.37-30.06,77.22-48.23.65-.43,2.16.65,1.51,1.3-16.22,15.14-59.27,56.45-88,56.45-6.7,0-15.35-7.79-15.35-13.63,0-5.19,1.29-9.51,3-14.27,5.2-12.33,16.23-26,29.86-37.42,17.95-14.93,37.2-21.63,46.5-21.63,3.25,0,13.2,5,13.2,11,0,13.41-41.54,44.56-65.76,45.21C342.11,129.13,338,136.05,337.36,141.67Zm11.46-21.41c18.82-2.16,54.73-37.21,56-45.42C380.83,82.62,356,108.8,348.82,120.26Z"/><path class="cls-1" d="M414.36,141.67c-.22,2.6,1.73,4.11,6.49,4.11,12.33,0,42-18.81,60.35-35C495,98.63,503.7,90.63,509.32,83.49a12.69,12.69,0,0,1-1.3-5.63c0-12.76,8.44-20.55,10.38-20.55,3.25,0,9.09,4.76,9.09,9.31,0,2.59-12.11,15.35-14.06,17.52,1.08,1.08,4.11,1.73,8.22,1.73,14.28,0,41.31-6.49,46.29-14.93,1.73-2.59,13.41,12.55,10.6,16.87-16.44,2.17-74,36.13-87.61,50.84,4.76-2.6,13.2-4.33,22.5-4.33,15.79,0,34.18,5,41.31,19.25.65,1.52,0,2.38-.86,1.3-5.19-9.09-15.79-13.84-36.77-13.84C495,141,478.6,156,475.14,156c-3,0-9.51-8-8.22-11.68,4.33-13,48.89-45.64,73.12-56A66.48,66.48,0,0,1,525.54,90c-5.84,0-11-1.09-14.06-3.68a129.21,129.21,0,0,1-14.06,14.49c-17.52,16.44-58.18,54.51-85.65,54.51-6.93,0-15.36-7.79-15.36-13.63a39.93,39.93,0,0,1,2.81-14.27c5.41-12.33,16.22-26,29.85-37.42,18.17-14.93,37.2-21.63,46.51-21.63,3.46,0,13.19,5,13.19,11,0,13.41-41.31,44.56-65.76,45.21C419.34,129.13,415,136.05,414.36,141.67ZM426,120.26c18.39-2.16,54.51-37.21,55.59-45.42C457.62,82.62,433.18,108.8,426,120.26Z"/><path class="cls-1" d="M571,141.67c-.22,2.6,1.73,4.11,6.49,4.11,15.79,0,55.37-30.06,77.22-48.23.65-.43,2.16.65,1.51,1.3C640,114,596.92,155.3,568.15,155.3c-6.7,0-15.35-7.79-15.35-13.63,0-5.19,1.29-9.51,3-14.27,5.2-12.33,16.23-26,29.86-37.42,18-14.93,37.2-21.63,46.5-21.63,3.25,0,13.2,5,13.2,11,0,13.41-41.53,44.56-65.76,45.21C575.73,129.13,571.61,136.05,571,141.67Zm11.46-21.41c18.82-2.16,54.73-37.21,56-45.42C614.44,82.62,589.57,108.8,582.43,120.26Z"/><path class="cls-2" d="M139.85,157.45H101.77L55,60.8,38.08,157.45H0L27.61,0H65.7l46.54,97.54L129.39,0h38.08Z"/><polygon class="cls-2" points="166.54 64.81 161.46 93.76 200.91 93.76 206.03 64.81 166.54 64.81"/><path class="cls-2" d="M368.58,0l-5.34,30.29H320.48L298.21,157.45h-38.3L282.18,30.29H239.87L245.21,0Z"/><path class="cls-2" d="M232.08,0H157.23a121.57,121.57,0,0,1,.19,16.64,10.51,10.51,0,0,1-6,8.92v7.5l10.75-2.77h64.58Z"/></g></g></svg>